<?xml version="1.0" encoding="iso-8859-1"?>
<!-- Generator: Adobe Illustrator 19.0.0, SVG Export Plug-In . SVG Version: 6.00 Build 0)  -->
<svg version="1.1" id="Capa_1" xmlns="http://www.w3.org/2000/svg" xmlns:xlink="http://www.w3.org/1999/xlink" x="0px" y="0px"
	 viewBox="0 0 490.667 490.667" style="enable-background:new 0 0 490.667 490.667;" xml:space="preserve">
<g>
	<g>
		<path d="M117.333,245.333h-64c-5.888,0-10.667,4.779-10.667,10.667v128c0,5.888,4.779,10.667,10.667,10.667S64,389.888,64,384
			V266.667h53.333c5.888,0,10.667-4.779,10.667-10.667S123.221,245.333,117.333,245.333z"/>
	</g>
</g>
<g>
	<g>
		<path d="M96,309.333H53.333c-5.888,0-10.667,4.779-10.667,10.667s4.779,10.667,10.667,10.667H96
			c5.888,0,10.667-4.779,10.667-10.667S101.888,309.333,96,309.333z"/>
	</g>
</g>
<g>
	<g>
		<path d="M185.749,330.667H192c23.531,0,42.667-19.136,42.667-42.667c0-23.531-19.136-42.667-42.667-42.667h-32
			c-5.888,0-10.667,4.779-10.667,10.667v63.915c0,0.043,0,0.107,0,0.149V384c0,5.888,4.779,10.667,10.667,10.667
			s10.667-4.779,10.667-10.667v-38.251l45.781,45.803c2.091,2.069,4.821,3.115,7.552,3.115c2.731,0,5.461-1.045,7.531-3.136
			c4.16-4.16,4.16-10.923,0-15.083L185.749,330.667z M170.667,266.667H192c11.776,0,21.333,9.579,21.333,21.333
			c0,11.755-9.557,21.333-21.333,21.333h-21.333V266.667z"/>
	</g>
</g>
<g>
	<g>
		<path d="M330.667,373.333h-53.333V266.667h53.333c5.888,0,10.667-4.779,10.667-10.667s-4.779-10.667-10.667-10.667h-64
			c-5.888,0-10.667,4.779-10.667,10.667v128c0,5.888,4.779,10.667,10.667,10.667h64c5.888,0,10.667-4.779,10.667-10.667
			S336.555,373.333,330.667,373.333z"/>
	</g>
</g>
<g>
	<g>
		<path d="M309.333,309.333h-42.667c-5.888,0-10.667,4.779-10.667,10.667s4.779,10.667,10.667,10.667h42.667
			c5.888,0,10.667-4.779,10.667-10.667S315.221,309.333,309.333,309.333z"/>
	</g>
</g>
<g>
	<g>
		<path d="M437.333,373.333H384V266.667h53.333c5.888,0,10.667-4.779,10.667-10.667s-4.779-10.667-10.667-10.667h-64
			c-5.888,0-10.667,4.779-10.667,10.667v128c0,5.888,4.779,10.667,10.667,10.667h64c5.888,0,10.667-4.779,10.667-10.667
			S443.221,373.333,437.333,373.333z"/>
	</g>
</g>
<g>
	<g>
		<path d="M416,309.333h-42.667c-5.888,0-10.667,4.779-10.667,10.667s4.779,10.667,10.667,10.667H416
			c5.888,0,10.667-4.779,10.667-10.667S421.888,309.333,416,309.333z"/>
	</g>
</g>
<g>
	<g>
		<path d="M437.333,202.667h-384C23.915,202.667,0,226.603,0,256v128c0,29.397,23.915,53.333,53.333,53.333h384
			c29.419,0,53.333-23.936,53.333-53.333V256C490.667,226.603,466.752,202.667,437.333,202.667z M469.333,384
			c0,17.643-14.357,32-32,32h-384c-17.643,0-32-14.357-32-32V256c0-17.643,14.357-32,32-32h384c17.643,0,32,14.357,32,32V384z"/>
	</g>
</g>
<g>
	<g>
		<path d="M245.333,53.333c-29.419,0-53.333,23.936-53.333,53.333S215.915,160,245.333,160s53.333-23.936,53.333-53.333
			S274.752,53.333,245.333,53.333z M245.333,138.667c-17.643,0-32-14.357-32-32c0-17.643,14.357-32,32-32s32,14.357,32,32
			C277.333,124.309,262.976,138.667,245.333,138.667z"/>
	</g>
</g>
<g>
	<g>
		<path d="M210.197,99.136c-4.16-4.16-10.923-4.16-15.083,0L88.448,205.803c-4.16,4.16-4.16,10.923,0,15.083
			C90.539,222.955,93.269,224,96,224s5.461-1.045,7.531-3.115l106.667-106.667C214.357,110.059,214.357,103.296,210.197,99.136z"/>
	</g>
</g>
<g>
	<g>
		<path d="M402.197,205.803L295.531,99.136c-4.16-4.16-10.923-4.16-15.083,0c-4.16,4.16-4.16,10.923,0,15.083l106.667,106.667
			c2.091,2.069,4.821,3.115,7.552,3.115c2.731,0,5.461-1.045,7.531-3.115C406.357,216.725,406.357,209.963,402.197,205.803z"/>
	</g>
</g>
<g>
</g>
<g>
</g>
<g>
</g>
<g>
</g>
<g>
</g>
<g>
</g>
<g>
</g>
<g>
</g>
<g>
</g>
<g>
</g>
<g>
</g>
<g>
</g>
<g>
</g>
<g>
</g>
<g>
</g>
</svg>
